<?xml version="1.0" encoding="UTF-8"?>
<svg version="1.1" viewBox="0 0 2048 901" width="611" height="269" xmlns="http://www.w3.org/2000/svg">
<path transform="translate(0)" d="m0 0h2048v901h-2048z" fill="#FCFCFC"/>
<path transform="translate(734,295)" d="m0 0h66l1 173 1 13 5 13 6 11 7 7 16 8 11 2 10 1 17-3 10-4 10-8 8-11 5-13 3-23 1-166h64v178l-4 22-4 14-10 19-14 17-13 11-10 6-19 9-21 5-17 2h-17l-4-1-14-1-21-6-24-12-13-10-5-5-10-12-9-16-5-11-3-11-4-31z" fill="#010001"/>
<path transform="translate(1131,372)" d="m0 0h10l6 1h5l9 4 6 3 10 7 10 10 9 16 6 16 1 1 1 12 2 3 1 24v23l-4 21-8 19-10 15-12 13-12 8-9 4-13 4-15 2-20-2-12-4-15-10v26l-1 50h-57l-1-1v-262h37l9 3 5 5 4 13v4l8-7 7-6 14-9 15-5z" fill="#010001"/>
<path transform="translate(1691,373)" d="m0 0h30l17 5 16 8 10 7 7 6 10 14 5 10 4 13 3 17v23l-3 6-5 3-118 1v12l7 17 7 7 14 9 10 1 9 1 18-4 16-7 9-4 9-1 7 3 8 9 9 12 2 3-11 11-15 9-18 8-19 4-15 2-30-2-17-5-20-10-14-12-8-9-6-9-7-15-2-9-3-12-2-13v-14l1-15 5-17 5-12 6-11 9-11 10-9 15-10 12-5 13-4z" fill="#010001"/>
<path transform="translate(1480,373)" d="m0 0h30l20 5 19 10 12 11 7 8 11 22 2 9 1 2 2 30-3 11-5 4-117 1-4-1 3 8 1 9 8 16 8 7 11 5 17 3 14-2 11-4 17-8 8-2 8 1 9 9 7 8 4 7v4l-8 7-9 7-16 8-11 4-6 2-10 2-3 1-18 1-17-1-14-3-14-4-16-8-13-11-8-9-7-9-7-15-3-7-2-10-1-2-1-18-1-5 1-16 1-12 4-15 10-18 10-14 11-9 11-7 13-6 16-5z" fill="#010001"/>
<path transform="translate(1288,373)" d="m0 0h30l13 2 13 4 22 11 8 7-1 5-10 16-8 7h-11l-11-4-13-5-10-1h-9l-12 5-4 7v8l5 6 7 4 3 2 4 1 35 12 13 7 10 8 7 7 5 10 2 14v9l-3 17-4 9-7 11-7 7-9 6-10 5-15 5-19 3-31-2-21-6-17-8-11-8 1-5 9-14 6-8 9-4 11 1 10 6 12 5 5 2h18l10-4 5-5 2-6-1-7-5-6-11-6-30-10-9-4-7-3-12-9-5-4-7-11-3-5-3-17 1-13 3-13 5-10 8-10 8-7 10-6 18-6z" fill="#010001"/>
<path transform="translate(577,281)" d="m0 0 5 2 20 11 17 10 15 9 2 2v66l-9 6-23 13-21 12-6 3-24-14-26-15-7-4v-68l13-8 26-15z" fill="#EA5E14"/>
<path transform="translate(442,204)" d="m0 0 5 1 25 14 29 17 1 3v65l-15 9-23 13-19 11-4-1-20-11-24-14-11-7v-68l28-16 24-14z" fill="#EA5E14"/>
<path transform="translate(443,513)" d="m0 0 12 6 24 14 21 12 2 3v65l-9 6-28 16-20 12-6-2-24-14-28-16-1-1v-68l29-17 21-12z" fill="#EA5E14"/>
<path transform="translate(309,281)" d="m0 0 5 2 25 14 17 10 10 6 1 1 1 67-9 6-25 14-24 14-15-8-24-14-17-10-2-2v-67l9-6 23-13 22-13z" fill="#EA5E14"/>
<path transform="translate(442,359)" d="m0 0 5 1 24 14 25 14 5 4 1 9v57l-3 3-52 30-5 1-52-30-4-3v-67l9-6 26-15 16-9z" fill="#EA5E14"/>
<path transform="translate(576,436)" d="m0 0 5 1 14 8 26 15 13 8 1 1v67l-10 7-18 10-24 14-6 3-17-10-28-16-11-7-1-1v-67l16-10 23-13z" fill="#EA5E14"/>
<path transform="translate(308,436)" d="m0 0 5 1 17 10 28 16 9 6v68l-21 12-26 15-8 5-6-1-25-14-17-10-11-7-1-1v-67l9-6 28-16z" fill="#EA5E14"/>
<path transform="translate(1112,417)" d="m0 0 10 1 8 3 6 5 7 14 1 9 2 2v42l-5 18-6 11-9 8-12 4-6 1-18-4-8-5-4-5-2-8v-77l10-10 9-6z" fill="#FDFDFD"/>
<path transform="translate(1704,413)" d="m0 0 11 1 7 3 8 6 6 10 4 11v7l-73 1-1-1 1-9 4-10 8-10 9-6z" fill="#FDFDFD"/>
<path transform="translate(1492,413)" d="m0 0h8l10 3 9 6 5 5 4 7 2 12 2 5h-74l-1-1 1-9 8-15 9-8 10-4z" fill="#FDFDFD"/>
</svg>
